<svg width="17" height="16" viewBox="0 0 17 16" fill="none" xmlns="http://www.w3.org/2000/svg">
<path d="M11.1673 8.59967V11.3997C11.1673 13.733 10.234 14.6663 7.90065 14.6663H5.10065C2.76732 14.6663 1.83398 13.733 1.83398 11.3997V8.59967C1.83398 6.26634 2.76732 5.33301 5.10065 5.33301H7.90065C10.234 5.33301 11.1673 6.26634 11.1673 8.59967Z" stroke="#363E4A" stroke-width="1.5" stroke-linecap="round" stroke-linejoin="round"/>
<path d="M15.1673 4.59967V7.39967C15.1673 9.73301 14.234 10.6663 11.9007 10.6663H11.1673V8.59967C11.1673 6.26634 10.234 5.33301 7.90065 5.33301H5.83398V4.59967C5.83398 2.26634 6.76732 1.33301 9.10065 1.33301H11.9007C14.234 1.33301 15.1673 2.26634 15.1673 4.59967Z" stroke="#363E4A" stroke-width="1.5" stroke-linecap="round" stroke-linejoin="round"/>
</svg>
