<svg width="24" height="24" viewBox="0 0 24 24" fill="none" xmlns="http://www.w3.org/2000/svg">
<path d="M0 4C0 1.79086 1.79086 0 4 0H20C22.2091 0 24 1.79086 24 4V20C24 22.2091 22.2091 24 20 24H4C1.79086 24 0 22.2091 0 20V4Z" fill="#EBF3FF"/>
<rect x="8" y="5" width="12" height="14" rx="2" fill="url(#paint0_linear_12001_149773)"/>
<path d="M8 15.5H20V17C20 18.1046 19.1046 19 18 19H10C8.89543 19 8 18.1046 8 17V15.5Z" fill="url(#paint1_linear_12001_149773)"/>
<rect x="8" y="12" width="12" height="3.5" fill="url(#paint2_linear_12001_149773)"/>
<rect x="8" y="8.5" width="12" height="3.5" fill="url(#paint3_linear_12001_149773)"/>
<path d="M8 11.5C8 9.84315 9.34315 8.5 11 8.5V8.5C12.6569 8.5 14 9.84315 14 11.5V14.5C14 16.1569 12.6569 17.5 11 17.5H8V11.5Z" fill="black" fill-opacity="0.3"/>
<rect x="4" y="7.5" width="9" height="9" rx="2" fill="url(#paint4_linear_12001_149773)"/>
<path d="M11.5 9.50709H10.5261L9.76144 12.7695L8.92484 9.5H8.10131L7.25817 12.7695L6.5 9.50709H5.5L6.80065 14.5H7.6634L8.5 11.344L9.3366 14.5H10.1993L11.5 9.50709Z" fill="white"/>
<defs>
<linearGradient id="paint0_linear_12001_149773" x1="8" y1="7.33333" x2="20" y2="7.33333" gradientUnits="userSpaceOnUse">
<stop stop-color="#2B78B1"/>
<stop offset="1" stop-color="#338ACD"/>
</linearGradient>
<linearGradient id="paint1_linear_12001_149773" x1="8" y1="17.6875" x2="20" y2="17.6875" gradientUnits="userSpaceOnUse">
<stop stop-color="#1B366F"/>
<stop offset="1" stop-color="#2657B0"/>
</linearGradient>
<linearGradient id="paint2_linear_12001_149773" x1="13.25" y1="14" x2="20" y2="14" gradientUnits="userSpaceOnUse">
<stop stop-color="#20478B"/>
<stop offset="1" stop-color="#2D6FD1"/>
</linearGradient>
<linearGradient id="paint3_linear_12001_149773" x1="13.25" y1="10.5" x2="20" y2="10.5" gradientUnits="userSpaceOnUse">
<stop stop-color="#215295"/>
<stop offset="1" stop-color="#2E84D3"/>
</linearGradient>
<linearGradient id="paint4_linear_12001_149773" x1="4" y1="12.5" x2="13.5" y2="12.5" gradientUnits="userSpaceOnUse">
<stop stop-color="#223E74"/>
<stop offset="1" stop-color="#215091"/>
</linearGradient>
</defs>
</svg>
