<svg width="24" height="24" viewBox="0 0 24 24" fill="none" xmlns="http://www.w3.org/2000/svg">
<path d="M0 4C0 1.79086 1.79086 0 4 0H20C22.2091 0 24 1.79086 24 4V20C24 22.2091 22.2091 24 20 24H4C1.79086 24 0 22.2091 0 20V4Z" fill="#FFF7D6"/>
<path d="M5 7C5 5.89543 5.89543 5 7 5H17C18.1046 5 19 5.89543 19 7V17C19 18.1046 18.1046 19 17 19H7C5.89543 19 5 18.1046 5 17V7Z" fill="#FB7C33"/>
<path d="M5.5 7.5C5.5 6.39543 6.39543 5.5 7.5 5.5H16.5C17.6046 5.5 18.5 6.39543 18.5 7.5V16.5C18.5 17.6046 17.6046 18.5 16.5 18.5H7.5C6.39543 18.5 5.5 17.6046 5.5 16.5V7.5Z" fill="#261302"/>
<path d="M9.98504 13.5803L9.51693 15.437C9.50725 15.4877 9.48789 15.5 9.42911 15.5H8.56135C8.50327 15.5 8.49359 15.4797 8.50327 15.408L10.1807 9.25049C10.2098 9.13821 10.2298 9.04114 10.2395 8.73471C10.2395 8.69414 10.2588 8.67313 10.2886 8.67313H11.527C11.5657 8.67313 11.5857 8.68328 11.5954 8.73471L13.4775 15.4181C13.4872 15.4689 13.4775 15.5 13.4284 15.5H12.4535C12.4051 15.5 12.3754 15.4877 12.3657 15.4471L11.8782 13.5803H9.98504ZM11.6327 12.5741L10.9309 9.66413L10.2388 12.5741H11.6327ZM14.2914 9.13314C14.2914 8.73471 14.5548 8.5 14.8957 8.5C15.2566 8.5 15.5 8.75572 15.5 9.13314C15.5 9.54171 15.2462 9.76627 14.886 9.76627C14.5347 9.76627 14.2914 9.54171 14.2914 9.13314ZM14.3577 10.5407C14.3577 10.4892 14.3771 10.469 14.4262 10.469H15.3534C15.4025 10.469 15.4219 10.4892 15.4219 10.5407V15.4283C15.4219 15.4797 15.4122 15.5 15.3534 15.5H14.4359C14.3771 15.5 14.3577 15.4696 14.3577 15.4181V10.5407Z" fill="#FB7C33"/>
</svg>
