<svg width="24" height="24" viewBox="0 0 24 24" fill="none" xmlns="http://www.w3.org/2000/svg">
<path d="M0 4C0 1.79086 1.79086 0 4 0H20C22.2091 0 24 1.79086 24 4V20C24 22.2091 22.2091 24 20 24H4C1.79086 24 0 22.2091 0 20V4Z" fill="#FDE9E7"/>
<circle cx="12.5" cy="12" r="7" fill="url(#paint0_linear_12001_20027)"/>
<mask id="mask0_12001_20027" style="mask-type:alpha" maskUnits="userSpaceOnUse" x="5" y="5" width="15" height="14">
<circle cx="12.5" cy="12" r="7" fill="#C4C4C4"/>
</mask>
<g mask="url(#mask0_12001_20027)">
<rect x="13" y="4" width="8.5" height="8.5" fill="url(#paint1_linear_12001_20027)"/>
<path d="M7 11.5C7 9.84315 8.34315 8.5 10 8.5H11C12.6569 8.5 14 9.84315 14 11.5V14.5C14 16.1569 12.6569 17.5 11 17.5H7V11.5Z" fill="black" fill-opacity="0.3"/>
<rect x="4.5" y="4" width="8.5" height="8.5" fill="#EB6C4D"/>
</g>
<rect x="4" y="7.5" width="9" height="9" rx="2" fill="url(#paint2_linear_12001_20027)"/>
<path d="M10.5 11.2286C10.5 10.15 9.78996 9.5 8.66393 9.5H7V14.5H8.03279V12.9786H8.6209C9.6752 12.9786 10.5 12.3786 10.5 11.2286ZM9.45287 11.25C9.45287 11.7357 9.14447 12.05 8.64242 12.05H8.03279V10.4357H8.63525C9.1373 10.4357 9.45287 10.7 9.45287 11.25Z" fill="white"/>
<defs>
<linearGradient id="paint0_linear_12001_20027" x1="5.5" y1="12.9655" x2="19.5" y2="12.9655" gradientUnits="userSpaceOnUse">
<stop stop-color="#A73A24"/>
<stop offset="1" stop-color="#F75936"/>
</linearGradient>
<linearGradient id="paint1_linear_12001_20027" x1="19.75" y1="9" x2="13" y2="9" gradientUnits="userSpaceOnUse">
<stop stop-color="#FDB8A3"/>
<stop offset="1" stop-color="#F1876D"/>
</linearGradient>
<linearGradient id="paint2_linear_12001_20027" x1="4" y1="12.6207" x2="13" y2="12.6207" gradientUnits="userSpaceOnUse">
<stop stop-color="#A73A24"/>
<stop offset="1" stop-color="#F75936"/>
</linearGradient>
</defs>
</svg>
