<svg width="24" height="24" viewBox="0 0 24 24" fill="none" xmlns="http://www.w3.org/2000/svg">
<path d="M0 4C0 1.79086 1.79086 0 4 0H20C22.2091 0 24 1.79086 24 4V20C24 22.2091 22.2091 24 20 24H4C1.79086 24 0 22.2091 0 20V4Z" fill="#EDF7ED"/>
<rect x="8" y="5" width="12" height="14" rx="2" fill="#2FB776"/>
<path d="M8 15.5H20V17C20 18.1046 19.1046 19 18 19H10C8.89543 19 8 18.1046 8 17V15.5Z" fill="url(#paint0_linear_12001_103975)"/>
<rect x="14" y="12" width="6" height="3.5" fill="#229C5B"/>
<rect x="14" y="8.5" width="6" height="3.5" fill="#27AE68"/>
<path d="M8 7C8 5.89543 8.89543 5 10 5H14V8.5H8V7Z" fill="#1D854F"/>
<rect x="8" y="8.5" width="6" height="3.5" fill="#197B43"/>
<rect x="8" y="12" width="6" height="3.5" fill="#1B5B38"/>
<path d="M8 11.5C8 9.84315 9.34315 8.5 11 8.5V8.5C12.6569 8.5 14 9.84315 14 11.5V14.5C14 16.1569 12.6569 17.5 11 17.5H8V11.5Z" fill="black" fill-opacity="0.3"/>
<rect x="4" y="7.5" width="9" height="9" rx="2" fill="url(#paint1_linear_12001_103975)"/>
<path d="M10.5 14.5L9.09107 11.95L10.4381 9.5H9.33849L8.50687 11.0643L7.689 9.5H6.55498L7.90893 11.95L6.5 14.5H7.59966L8.48625 12.8429L9.36598 14.5H10.5Z" fill="white"/>
<defs>
<linearGradient id="paint0_linear_12001_103975" x1="8" y1="17.25" x2="20" y2="17.25" gradientUnits="userSpaceOnUse">
<stop stop-color="#163C27"/>
<stop offset="1" stop-color="#2A6043"/>
</linearGradient>
<linearGradient id="paint1_linear_12001_103975" x1="4" y1="12" x2="13" y2="12" gradientUnits="userSpaceOnUse">
<stop stop-color="#185A30"/>
<stop offset="1" stop-color="#176F3D"/>
</linearGradient>
</defs>
</svg>
