<svg width="25" height="24" viewBox="0 0 25 24" fill="none" xmlns="http://www.w3.org/2000/svg">
<path d="M18.48 10.79V14.79C18.48 15.05 18.47 15.3 18.44 15.54C18.21 18.24 16.62 19.58 13.69 19.58H13.29C13.04 19.58 12.8 19.7 12.65 19.9L11.45 21.5C10.92 22.21 10.06 22.21 9.53 21.5L8.32999 19.9C8.19999 19.73 7.91 19.58 7.69 19.58H7.29001C4.10001 19.58 2.5 18.79 2.5 14.79V10.79C2.5 7.86001 3.85001 6.27001 6.54001 6.04001C6.78001 6.01001 7.03001 6 7.29001 6H13.69C16.88 6 18.48 7.60001 18.48 10.79Z" stroke="white" stroke-width="2" stroke-miterlimit="10" stroke-linecap="round" stroke-linejoin="round"/>
<path d="M22.4791 6.79001V10.79C22.4791 13.73 21.1291 15.31 18.4391 15.54C18.4691 15.3 18.4791 15.05 18.4791 14.79V10.79C18.4791 7.60001 16.8791 6 13.6891 6H7.28906C7.02906 6 6.77906 6.01001 6.53906 6.04001C6.76906 3.35001 8.35906 2 11.2891 2H17.6891C20.8791 2 22.4791 3.60001 22.4791 6.79001Z" stroke="white" stroke-width="2" stroke-miterlimit="10" stroke-linecap="round" stroke-linejoin="round"/>
<path d="M13.9955 13.25H14.0045" stroke="white" stroke-width="2" stroke-linecap="round" stroke-linejoin="round"/>
<path d="M10.4955 13.25H10.5045" stroke="white" stroke-width="2" stroke-linecap="round" stroke-linejoin="round"/>
<path d="M6.9955 13.25H7.0045" stroke="white" stroke-width="2" stroke-linecap="round" stroke-linejoin="round"/>
</svg>
