<svg width="16" height="16" viewBox="0 0 16 16" fill="none" xmlns="http://www.w3.org/2000/svg">
<path fill-rule="evenodd" clip-rule="evenodd" d="M6.38427 8.66674L1.53059 2.59961H5.27143L8.45342 6.57711L12.3915 2.59961H13.4909L8.94455 7.19128L14.0714 13.5996H10.3306L6.87561 9.28071L2.59934 13.5996H1.5L6.38427 8.66674ZM4.81233 3.38532H3.07143L10.7591 12.8139H12.5L4.81233 3.38532Z" fill="#1D9BF0"/>
<path d="M1.53059 2.59961V2.29961H0.906404L1.29633 2.78702L1.53059 2.59961ZM6.38427 8.66674L6.59745 8.87782L6.78544 8.68796L6.61853 8.47933L6.38427 8.66674ZM5.27143 2.59961L5.50569 2.4122L5.41562 2.29961H5.27143V2.59961ZM8.45342 6.57711L8.21916 6.76452L8.4296 7.02756L8.6666 6.78818L8.45342 6.57711ZM12.3915 2.59961V2.29961H12.2664L12.1783 2.38854L12.3915 2.59961ZM13.4909 2.59961L13.704 2.81069L14.2101 2.29961H13.4909V2.59961ZM8.94455 7.19128L8.73136 6.9802L8.54338 7.17006L8.71029 7.37869L8.94455 7.19128ZM14.0714 13.5996V13.8996H14.6956L14.3057 13.4122L14.0714 13.5996ZM10.3306 13.5996L10.0963 13.787L10.1864 13.8996H10.3306V13.5996ZM6.87561 9.28071L7.10987 9.09331L6.89944 8.83026L6.66243 9.06963L6.87561 9.28071ZM2.59934 13.5996V13.8996H2.72448L2.81252 13.8107L2.59934 13.5996ZM1.5 13.5996L1.28682 13.3885L0.780776 13.8996H1.5V13.5996ZM3.07143 3.38532V3.08532H2.43974L2.83892 3.5749L3.07143 3.38532ZM4.81233 3.38532L5.04484 3.19575L4.95481 3.08532H4.81233V3.38532ZM10.7591 12.8139L10.5266 13.0035L10.6166 13.1139H10.7591V12.8139ZM12.5 12.8139V13.1139H13.1317L12.7325 12.6243L12.5 12.8139ZM1.29633 2.78702L6.15001 8.85415L6.61853 8.47933L1.76485 2.4122L1.29633 2.78702ZM5.27143 2.29961H1.53059V2.89961H5.27143V2.29961ZM8.68768 6.3897L5.50569 2.4122L5.03717 2.78702L8.21916 6.76452L8.68768 6.3897ZM12.1783 2.38854L8.24023 6.36603L8.6666 6.78818L12.6047 2.81068L12.1783 2.38854ZM13.4909 2.29961H12.3915V2.89961H13.4909V2.29961ZM9.15773 7.40235L13.704 2.81069L13.2777 2.38853L8.73136 6.9802L9.15773 7.40235ZM14.3057 13.4122L9.1788 7.00386L8.71029 7.37869L13.8372 13.787L14.3057 13.4122ZM10.3306 13.8996H14.0714V13.2996H10.3306V13.8996ZM6.64135 9.46811L10.0963 13.787L10.5649 13.4122L7.10987 9.09331L6.64135 9.46811ZM2.81252 13.8107L7.08879 9.49179L6.66243 9.06963L2.38616 13.3885L2.81252 13.8107ZM1.5 13.8996H2.59934V13.2996H1.5V13.8996ZM6.17109 8.45566L1.28682 13.3885L1.71318 13.8107L6.59745 8.87782L6.17109 8.45566ZM3.07143 3.68532H4.81233V3.08532H3.07143V3.68532ZM10.9916 12.6243L3.30394 3.19575L2.83892 3.5749L10.5266 13.0035L10.9916 12.6243ZM12.5 12.5139H10.7591V13.1139H12.5V12.5139ZM4.57982 3.5749L12.2675 13.0035L12.7325 12.6243L5.04484 3.19575L4.57982 3.5749Z" fill="#1D9BF0"/>
</svg>
