<svg width="24" height="24" viewBox="0 0 24 24" fill="none" xmlns="http://www.w3.org/2000/svg">
<path d="M20.25 17.2222C20.25 17.5192 20.1839 17.8245 20.0434 18.1215C19.903 18.4185 19.7212 18.699 19.4816 18.963C19.0767 19.4085 18.6306 19.7303 18.1266 19.9365C17.6308 20.1428 17.0938 20.25 16.5154 20.25C15.6726 20.25 14.772 20.052 13.8219 19.6478C12.8717 19.2435 11.9215 18.699 10.9796 18.0143C10.0294 17.3213 9.12882 16.554 8.26953 15.7042C7.4185 14.8462 6.6501 13.947 5.96432 13.0065C5.28681 12.066 4.74149 11.1255 4.34489 10.1933C3.9483 9.25275 3.75 8.3535 3.75 7.4955C3.75 6.9345 3.84915 6.39825 4.04745 5.90325C4.24574 5.4 4.55971 4.938 4.99762 4.5255C5.52641 4.00575 6.10478 3.75 6.7162 3.75C6.94755 3.75 7.17889 3.7995 7.38545 3.8985C7.60028 3.9975 7.79031 4.146 7.93903 4.3605L9.85591 7.05825C10.0046 7.2645 10.112 7.45425 10.1864 7.63575C10.2608 7.809 10.3021 7.98225 10.3021 8.139C10.3021 8.337 10.2442 8.535 10.1286 8.72475C10.0212 8.9145 9.86417 9.1125 9.66587 9.3105L9.03793 9.96225C8.94705 10.053 8.90573 10.1603 8.90573 10.2923C8.90573 10.3583 8.914 10.416 8.93052 10.482C8.95531 10.548 8.9801 10.5975 8.99662 10.647C9.14534 10.9192 9.40148 11.274 9.76502 11.703C10.1368 12.132 10.5334 12.5693 10.9631 13.0065C11.4092 13.4438 11.8389 13.848 12.2768 14.2192C12.7064 14.5822 13.0617 14.8297 13.3426 14.9782C13.384 14.9947 13.4335 15.0195 13.4914 15.0442C13.5575 15.069 13.6236 15.0772 13.6979 15.0772C13.8384 15.0772 13.9458 15.0278 14.0367 14.937L14.6646 14.3183C14.8712 14.112 15.0695 13.9552 15.2595 13.8562C15.4496 13.7407 15.6396 13.683 15.8461 13.683C16.0031 13.683 16.1684 13.716 16.3502 13.7902C16.5319 13.8645 16.722 13.9718 16.9285 14.112L19.6634 16.0507C19.8782 16.1992 20.0269 16.3725 20.1178 16.5787C20.2004 16.785 20.25 16.9912 20.25 17.2222Z" stroke="#607085" stroke-width="2" stroke-miterlimit="10"/>
</svg>
