<svg width="16" height="16" viewBox="0 0 16 16" fill="none" xmlns="http://www.w3.org/2000/svg">
<path d="M11.9873 7.19334V9.86001C11.9873 10.0333 11.9807 10.2 11.9607 10.36C11.8073 12.16 10.7473 13.0533 8.79399 13.0533H8.52732C8.36066 13.0533 8.20065 13.1333 8.10065 13.2667L7.30066 14.3333C6.94733 14.8067 6.37398 14.8067 6.02065 14.3333L5.22064 13.2667C5.13398 13.1533 4.94065 13.0533 4.79399 13.0533H4.52732C2.40066 13.0533 1.33398 12.5267 1.33398 9.86001V7.19334C1.33398 5.24001 2.23399 4.18001 4.02732 4.02667C4.18732 4.00667 4.35399 4 4.52732 4H8.79399C10.9207 4 11.9873 5.06667 11.9873 7.19334Z" stroke="#2364E7" stroke-width="1.5" stroke-miterlimit="10" stroke-linecap="round" stroke-linejoin="round"/>
<path d="M14.654 4.52635V7.19301C14.654 9.15301 13.754 10.2063 11.9607 10.3597C11.9807 10.1997 11.9873 10.033 11.9873 9.85968V7.19301C11.9873 5.06635 10.9207 3.99967 8.79401 3.99967H4.52734C4.35401 3.99967 4.18734 4.00635 4.02734 4.02635C4.18068 2.23301 5.24068 1.33301 7.19401 1.33301H11.4607C13.5873 1.33301 14.654 2.39968 14.654 4.52635Z" stroke="#2364E7" stroke-width="1.5" stroke-miterlimit="10" stroke-linecap="round" stroke-linejoin="round"/>
<path d="M8.99635 8.83333H9.00235" stroke="#2364E7" stroke-width="2" stroke-linecap="round" stroke-linejoin="round"/>
<path d="M6.66432 8.83333H6.67032" stroke="#2364E7" stroke-width="2" stroke-linecap="round" stroke-linejoin="round"/>
<path d="M4.33033 8.83333H4.33633" stroke="#2364E7" stroke-width="2" stroke-linecap="round" stroke-linejoin="round"/>
</svg>
