<svg width="40" height="40" viewBox="0 0 40 40" fill="none" xmlns="http://www.w3.org/2000/svg">
<path d="M12.732 18.5984C13.4172 16.0415 16.0454 13.4133 18.6023 12.728L34.5431 8.45607C37.1 7.77085 38.6173 9.28814 37.9321 11.845L33.6601 27.7859C32.9749 30.3428 30.3467 32.971 27.7898 33.6562L11.8489 37.9282C9.29205 38.6134 7.77476 37.0961 8.45998 34.5392L12.732 18.5984Z" fill="#9E77ED"/>
<path d="M6.34133 12.2078C7.02655 9.6509 9.6548 7.02264 12.2117 6.33742L28.1525 2.06545C30.7094 1.38023 32.2267 2.89752 31.5415 5.45441L27.2695 21.3952C26.5843 23.9521 23.9561 26.5804 21.3992 27.2656L5.45831 31.5376C2.90142 32.2228 1.38413 30.7055 2.06935 28.1486L6.34133 12.2078Z" fill="#6941C6"/>
</svg>
