<svg width="215" height="41" viewBox="0 0 215 41" fill="none" xmlns="http://www.w3.org/2000/svg">
<path d="M40.068 40.316C38.136 40.316 36.092 39.392 33.936 37.544C31.416 35.36 29.106 32.042 27.006 27.59C26.754 27.058 26.432 26.414 26.04 25.658C25.676 24.874 25.228 23.978 24.696 22.97H23.982C19.138 32.938 13.552 37.922 7.224 37.922C5.012 37.922 3.262 37.208 1.974 35.78C0.686 34.352 0.042 32.504 0.042 30.236C0.042 27.856 0.742 25.756 2.142 23.936C3.598 21.976 5.516 20.996 7.896 20.996C8.568 20.996 9.198 21.192 9.786 21.584C10.402 21.976 10.71 22.48 10.71 23.096C10.71 23.236 10.668 23.334 10.584 23.39L10.164 22.55C9.912 22.046 9.31 21.794 8.358 21.794C6.314 21.794 4.634 22.844 3.318 24.944C2.17 26.764 1.596 28.752 1.596 30.908C1.596 32.784 2.03 34.296 2.898 35.444C3.878 36.76 5.264 37.418 7.056 37.418C10.528 37.418 13.902 35.08 17.178 30.404C18.074 29.116 18.9 27.842 19.656 26.582C20.44 25.294 21.14 24.02 21.756 22.76C21.336 22.676 20.916 22.578 20.496 22.466C20.104 22.326 19.712 22.186 19.32 22.046C17.836 25.154 16.114 27.982 14.154 30.53C11.354 34.226 8.848 36.074 6.636 36.074C6.356 36.074 6.216 35.976 6.216 35.78C6.216 35.64 6.356 35.542 6.636 35.486C6.944 35.43 7.434 35.318 8.106 35.15C10.094 34.366 12.208 32.448 14.448 29.396C15.26 28.276 16.03 27.086 16.758 25.826C17.514 24.566 18.228 23.236 18.9 21.836C16.912 20.912 15.918 19.904 15.918 18.812C15.918 18.252 16.198 17.748 16.758 17.3C17.346 16.852 17.92 16.628 18.48 16.628C19.18 16.628 19.95 16.922 20.79 17.51L21.672 15.116C21.028 14.22 20.706 13.31 20.706 12.386C20.706 11.294 20.986 10.748 21.546 10.748C21.938 10.748 22.288 11.154 22.596 11.966C22.96 10.65 23.24 9.376 23.436 8.144C23.66 6.884 23.828 5.666 23.94 4.49C21.224 4.602 18.62 5.064 16.128 5.876C14.672 6.352 13.37 6.926 12.222 7.598C11.074 8.242 10.094 8.998 9.282 9.866C8.162 10.986 7.602 12.246 7.602 13.646C7.602 15.97 8.862 17.636 11.382 18.644C11.578 18.7 11.816 18.77 12.096 18.854C12.376 18.938 12.712 19.022 13.104 19.106C13.272 19.134 13.356 19.204 13.356 19.316C13.356 19.428 13.244 19.484 13.02 19.484H12.936C12.068 19.484 11.228 19.288 10.416 18.896C9.604 18.504 8.806 17.986 8.022 17.342C6.398 15.97 5.586 14.416 5.586 12.68C5.586 11.448 6.09 10.314 7.098 9.278C8.834 7.542 11.48 6.17 15.036 5.162C17.864 4.35 20.86 3.888 24.024 3.776V0.92C24.024 0.695999 24.108 0.583999 24.276 0.583999C24.36 0.583999 24.402 0.653999 24.402 0.793999C24.542 1.606 24.584 2.586 24.528 3.734H26.544C27.72 3.734 28.854 3.79 29.946 3.902C31.038 4.014 32.102 4.182 33.138 4.406C34.426 4.686 35.602 5.036 36.666 5.456C37.73 5.876 38.696 6.394 39.564 7.01C41.804 8.578 42.924 10.482 42.924 12.722C42.924 14.906 41.846 16.866 39.69 18.602C38.01 19.946 35.924 20.996 33.432 21.752C32.284 22.116 31.066 22.396 29.778 22.592C28.49 22.788 27.146 22.914 25.746 22.97L31.416 30.656C32.732 32.42 33.922 33.862 34.986 34.982C36.05 36.102 36.946 36.914 37.674 37.418C39.158 38.426 40.404 38.93 41.412 38.93C43.008 38.93 43.806 37.866 43.806 35.738C43.806 33.834 43.204 32.056 42 30.404C41.916 30.264 41.874 30.18 41.874 30.152C41.874 30.068 41.916 30.026 42 30.026C42.14 30.026 42.294 30.124 42.462 30.32C43.834 31.944 44.52 33.694 44.52 35.57C44.52 36.914 44.114 38.034 43.302 38.93C42.49 39.854 41.412 40.316 40.068 40.316ZM24.99 21.962C28.014 21.962 30.744 21.64 33.18 20.996C35.224 20.408 36.904 19.582 38.22 18.518C39.872 17.174 40.698 15.578 40.698 13.73C40.698 11.658 39.732 9.81 37.8 8.186C36.204 6.87 34.272 5.904 32.004 5.288C30.94 4.98 29.848 4.77 28.728 4.658C27.608 4.518 26.474 4.448 25.326 4.448H24.486C24.43 5.568 24.29 6.744 24.066 7.976C23.842 9.18 23.548 10.44 23.184 11.756C23.66 11.448 24.038 11.294 24.318 11.294C24.598 11.294 24.738 11.448 24.738 11.756C24.738 12.316 24.444 12.96 23.856 13.688C23.576 14.052 23.282 14.36 22.974 14.612C22.694 14.864 22.414 15.074 22.134 15.242C21.994 15.662 21.84 16.082 21.672 16.502C21.532 16.922 21.364 17.356 21.168 17.804C21.476 18.056 21.798 18.336 22.134 18.644C22.47 18.952 22.806 19.302 23.142 19.694C24.038 17.482 24.794 15.158 25.41 12.722C25.494 12.33 25.592 11.84 25.704 11.252C25.844 10.636 26.012 9.936 26.208 9.152C26.46 8.284 27.034 7.85 27.93 7.85C28.462 7.85 28.728 8.06 28.728 8.48C28.728 8.62 28.7 8.858 28.644 9.194C28.588 9.53 28.504 9.964 28.392 10.496C27.972 12.316 27.44 14.15 26.796 15.998C26.18 17.818 25.466 19.666 24.654 21.542L24.99 21.962ZM19.32 20.996C19.544 20.52 19.754 20.03 19.95 19.526C20.174 19.022 20.384 18.518 20.58 18.014C19.768 17.454 19.068 17.174 18.48 17.174C17.668 17.174 17.262 17.58 17.262 18.392C17.262 19.428 17.948 20.296 19.32 20.996ZM22.176 21.836C22.316 21.584 22.442 21.332 22.554 21.08C22.666 20.828 22.778 20.576 22.89 20.324C22.274 19.54 21.63 18.882 20.958 18.35C20.762 18.826 20.566 19.302 20.37 19.778C20.174 20.254 19.964 20.73 19.74 21.206C20.468 21.514 21.28 21.724 22.176 21.836ZM43.3305 31.874C42.2385 31.874 41.6925 31.174 41.6925 29.774C41.6925 28.066 42.3365 26.316 43.6245 24.524C43.1765 23.432 42.9525 22.27 42.9525 21.038C42.9525 19.834 43.1905 18.784 43.6665 17.888C44.5625 16.124 45.7105 15.242 47.1105 15.242C48.8465 15.242 49.8545 16.726 50.1345 19.694C50.8345 19.722 51.3525 19.946 51.6885 20.366C52.0525 20.758 52.2345 21.318 52.2345 22.046C52.2345 22.606 52.1645 23.012 52.0245 23.264C51.9125 23.488 51.8005 23.6 51.6885 23.6C51.5765 23.6 51.5205 23.544 51.5205 23.432C51.5205 23.292 51.5345 23.124 51.5625 22.928C51.6185 22.732 51.6465 22.494 51.6465 22.214C51.6465 21.822 51.5065 21.528 51.2265 21.332C50.9465 21.108 50.5965 20.996 50.1765 20.996C49.8405 24.412 49.0145 27.03 47.6985 28.85H49.0005C48.6365 29.074 48.3145 29.186 48.0345 29.186C47.9785 29.186 47.8945 29.172 47.7825 29.144C47.6985 29.116 47.6285 29.102 47.5725 29.102C47.6285 29.13 47.1385 29.592 46.1025 30.488C45.0105 31.412 44.0865 31.874 43.3305 31.874ZM44.0865 24.062C45.7945 21.766 47.5865 20.338 49.4625 19.778C48.9025 17.37 48.1325 16.166 47.1525 16.166C46.2565 16.166 45.4305 17.048 44.6745 18.812C44.1985 19.988 43.9605 21.234 43.9605 22.55C43.9605 23.082 44.0025 23.586 44.0865 24.062ZM46.3545 28.64C47.0265 28.024 47.7125 26.82 48.4125 25.028C49.1405 23.18 49.5045 21.822 49.5045 20.954C48.8885 21.038 47.9225 21.612 46.6065 22.676C45.3185 23.712 44.5205 24.538 44.2125 25.154C44.8005 27.282 45.5145 28.444 46.3545 28.64ZM43.4565 30.614C44.2405 30.614 45.1505 30.026 46.1865 28.85C45.2625 28.738 44.5065 27.632 43.9185 25.532C42.9945 27.072 42.5325 28.276 42.5325 29.144C42.5325 30.124 42.8405 30.614 43.4565 30.614ZM52.542 32.462C52.29 32.462 52.164 32.28 52.164 31.916V31.832C52.276 31.44 52.388 30.95 52.5 30.362C52.64 29.774 52.794 29.088 52.962 28.304C53.13 27.52 53.34 26.54 53.592 25.364C53.844 24.16 54.152 22.774 54.516 21.206L54.012 19.988C53.872 19.624 53.76 19.358 53.676 19.19C53.62 19.022 53.592 18.938 53.592 18.938C53.592 18.742 53.83 18.56 54.306 18.392C55.706 17.86 56.602 17.594 56.994 17.594C57.414 17.594 57.624 17.72 57.624 17.972C57.596 17.888 56.882 19.68 55.482 23.348V23.726C55.482 24.51 55.356 24.902 55.104 24.902C55.076 24.902 55.034 24.86 54.978 24.776C54.754 25.476 54.53 26.148 54.306 26.792C54.11 27.408 53.928 28.024 53.76 28.64C54.376 27.632 55.006 26.666 55.65 25.742C56.322 24.818 57.008 23.95 57.708 23.138C59.808 20.702 61.544 19.484 62.916 19.484C63.56 19.484 63.882 19.736 63.882 20.24C63.882 20.408 63.84 20.618 63.756 20.87C63.532 21.822 63.224 23.026 62.832 24.482C62.44 25.91 61.978 27.576 61.446 29.48C63.07 28.276 64.33 26.988 65.226 25.616C65.366 25.448 65.464 25.364 65.52 25.364C65.604 25.364 65.646 25.42 65.646 25.532C65.646 25.588 65.604 25.686 65.52 25.826C64.288 28.01 62.79 29.746 61.026 31.034C60.914 31.202 60.732 31.286 60.48 31.286C60.284 31.286 60.186 31.174 60.186 30.95C60.186 30.894 60.228 30.642 60.312 30.194C60.396 29.718 60.508 29.06 60.648 28.22C60.788 27.604 60.914 27.002 61.026 26.414C61.138 25.826 61.25 25.224 61.362 24.608C61.558 23.236 61.684 22.032 61.74 20.996C61.124 21.276 60.452 21.738 59.724 22.382C59.024 22.998 58.24 23.782 57.372 24.734C56.588 25.602 55.902 26.428 55.314 27.212C54.754 27.968 54.292 28.682 53.928 29.354C53.536 30.11 53.242 30.922 53.046 31.79C52.934 32.238 52.766 32.462 52.542 32.462ZM54.768 20.072L55.146 18.686C55.006 18.798 54.74 18.938 54.348 19.106L54.768 20.072ZM73.0836 32.168C72.3276 32.168 71.7396 31.776 71.3196 30.992C70.9836 30.348 70.8156 29.606 70.8156 28.766C70.8156 28.346 70.8436 27.884 70.8996 27.38C70.9836 26.848 71.0956 26.274 71.2356 25.658C69.4716 29.578 67.6516 31.538 65.7756 31.538C64.6276 31.538 64.0536 30.796 64.0536 29.312C64.0536 26.932 65.2016 24.468 67.4976 21.92C69.8216 19.316 72.1316 18.014 74.4276 18.014C75.5196 18.014 76.0656 18.49 76.0656 19.442C76.0656 20.618 75.2816 21.794 73.7136 22.97C72.9016 24.986 72.4956 27.058 72.4956 29.186C72.4956 30.782 72.8456 31.58 73.5456 31.58C74.5256 31.58 76.2056 29.816 78.5856 26.288C78.7536 26.064 78.8796 25.952 78.9636 25.952C79.0476 25.952 79.0896 26.008 79.0896 26.12C79.0896 26.26 79.0336 26.4 78.9216 26.54C76.4016 30.292 74.4556 32.168 73.0836 32.168ZM65.9436 30.236C67.7076 30.236 69.4156 28.276 71.0676 24.356C70.8436 24.412 70.6336 24.468 70.4376 24.524C70.2696 24.552 70.1156 24.566 69.9756 24.566C69.8636 24.566 69.8076 24.524 69.8076 24.44C69.8076 24.3 70.0036 24.16 70.3956 24.02L71.6976 23.264C71.7536 22.788 72.0476 22.172 72.5796 21.416C73.1116 20.632 73.6156 20.24 74.0916 20.24C74.2596 20.24 74.3436 20.366 74.3436 20.618C74.3436 20.814 74.2736 21.122 74.1336 21.542C74.5816 20.926 74.8056 20.324 74.8056 19.736C74.8056 19.092 74.5116 18.77 73.9236 18.77C72.5236 18.77 70.6896 20.156 68.4216 22.928C66.1536 25.644 65.0196 27.758 65.0196 29.27C65.0196 29.914 65.3276 30.236 65.9436 30.236ZM80.4753 31.58C79.0753 31.58 78.3753 30.866 78.3753 29.438C78.3753 27.898 79.0893 25.196 80.5173 21.332C79.8173 22.284 79.3273 22.76 79.0473 22.76C78.9633 22.76 78.9213 22.718 78.9213 22.634C78.9213 22.606 79.2853 22.116 80.0133 21.164C80.3773 20.688 80.6573 20.324 80.8533 20.072C81.0773 19.792 81.2033 19.61 81.2313 19.526C81.3713 19.134 81.5673 18.63 81.8193 18.014C82.0713 17.398 82.3653 16.698 82.7013 15.914C83.3173 14.514 83.9473 13.114 84.5913 11.714C85.2353 10.286 85.9073 8.858 86.6073 7.43C86.8313 6.954 87.1113 6.38 87.4473 5.708C87.8113 5.036 88.2313 4.266 88.7073 3.398C89.0153 2.922 89.5893 2.684 90.4293 2.684C90.9333 2.684 91.1853 2.81 91.1853 3.062C91.1853 3.146 91.1713 3.216 91.1433 3.272L88.8753 8.312L87.9513 10.328C87.7553 10.44 87.5033 10.65 87.1953 10.958C87.1953 10.958 87.0413 11.252 86.7333 11.84C86.4533 12.428 86.0053 13.296 85.3893 14.444C81.4413 22.116 79.4673 27.128 79.4673 29.48C79.4673 30.404 79.7753 30.866 80.3913 30.866C81.0913 30.866 81.9173 30.474 82.8693 29.69C83.8493 28.878 84.3113 28.472 84.2553 28.472C84.3673 28.472 84.4233 28.528 84.4233 28.64C84.4233 28.752 84.3673 28.864 84.2553 28.976C83.0233 30.712 81.7633 31.58 80.4753 31.58ZM94.0449 32.294C92.4209 32.294 91.6089 31.118 91.6089 28.766C91.6089 27.618 91.8609 25.91 92.3649 23.642C91.1889 25.938 90.2509 27.548 89.5509 28.472C88.0669 30.544 86.6809 31.58 85.3929 31.58C84.0769 31.58 83.4189 30.712 83.4189 28.976C83.4189 26.316 84.8329 23.488 87.6609 20.492C90.4889 17.496 93.2609 15.844 95.9769 15.536C96.5929 14.052 97.1949 12.638 97.7829 11.294C98.3709 9.95 98.9309 8.676 99.4629 7.472C99.6869 6.996 99.9389 6.45 100.219 5.834C100.527 5.218 100.863 4.532 101.227 3.776C101.703 3.132 102.459 2.81 103.495 2.81C103.887 2.81 104.083 2.908 104.083 3.104C104.083 3.104 104.055 3.16 103.999 3.272C103.775 3.72 103.467 4.294 103.075 4.994C102.711 5.694 102.291 6.492 101.815 7.388C101.059 8.844 100.317 10.286 99.5889 11.714C98.8889 13.114 98.2169 14.472 97.5729 15.788C97.9089 15.872 98.0769 16.124 98.0769 16.544C98.0769 17.104 97.7269 17.944 97.0269 19.064C96.3549 20.184 95.7949 20.912 95.3469 21.248C95.0669 21.78 94.8149 22.396 94.5909 23.096C94.3669 23.796 94.1429 24.552 93.9189 25.364C93.7229 26.176 93.5689 26.932 93.4569 27.632C93.3729 28.332 93.3309 28.962 93.3309 29.522C93.3309 30.894 93.6949 31.58 94.4229 31.58C95.2629 31.58 96.2849 30.824 97.4889 29.312C97.8809 28.836 98.6369 27.702 99.7569 25.91C99.8969 25.742 99.9949 25.658 100.051 25.658C100.135 25.658 100.177 25.7 100.177 25.784C100.177 25.784 100.149 25.868 100.093 26.036C97.9369 30.208 95.9209 32.294 94.0449 32.294ZM85.6029 30.026C87.6469 30.026 89.6489 27.744 91.6089 23.18C91.0769 23.348 90.6429 23.432 90.3069 23.432C90.1949 23.432 90.1389 23.376 90.1389 23.264C90.1389 23.096 90.3349 22.956 90.7269 22.844C91.1189 22.704 91.5809 22.452 92.1129 22.088C92.2249 21.808 92.3369 21.5 92.4489 21.164C92.5889 20.8 92.7149 20.408 92.8269 19.988C92.9109 19.764 93.0089 19.652 93.1209 19.652C93.3169 19.652 93.4149 19.778 93.4149 20.03C93.4149 20.282 93.2889 20.744 93.0369 21.416L93.7929 20.87L95.5569 16.502C93.4849 16.95 91.1329 18.476 88.5009 21.08C85.8129 23.796 84.4689 26.162 84.4689 28.178C84.4689 29.41 84.8469 30.026 85.6029 30.026ZM147.611 40.316C145.679 40.316 143.635 39.392 141.479 37.544C140.527 36.732 139.631 35.808 138.791 34.772C137.979 33.764 137.223 32.658 136.523 31.454C135.963 30.278 135.389 29.102 134.801 27.926C134.213 26.75 133.625 25.588 133.037 24.44L131.147 27.842C128.823 32.042 127.003 34.142 125.687 34.142C125.239 34.142 125.015 33.988 125.015 33.68C125.015 33.54 125.085 33.47 125.225 33.47C125.813 33.386 126.317 33.232 126.737 33.008C127.717 32.448 128.865 31.076 130.181 28.892C130.405 28.528 130.727 27.94 131.147 27.128C131.595 26.316 132.141 25.28 132.785 24.02C132.645 23.712 132.491 23.418 132.323 23.138C132.155 22.858 132.001 22.592 131.861 22.34C126.821 32.728 121.123 37.922 114.767 37.922C112.555 37.922 110.805 37.208 109.517 35.78C108.257 34.352 107.627 32.504 107.627 30.236C107.627 27.828 108.313 25.728 109.685 23.936C111.141 21.976 113.059 20.996 115.439 20.996C116.111 20.996 116.741 21.192 117.329 21.584C117.945 21.976 118.253 22.48 118.253 23.096C118.253 23.236 118.211 23.334 118.127 23.39L117.707 22.55C117.455 22.046 116.853 21.794 115.901 21.794C113.857 21.794 112.177 22.844 110.861 24.944C109.713 26.764 109.139 28.752 109.139 30.908C109.139 32.784 109.573 34.296 110.441 35.444C111.421 36.76 112.807 37.418 114.599 37.418C115.467 37.418 116.363 37.278 117.287 36.998C119.723 36.298 122.313 33.932 125.057 29.9C126.037 28.5 126.961 27.002 127.829 25.406C128.725 23.782 129.565 22.074 130.349 20.282C129.397 19.218 128.291 18.294 127.031 17.51C126.975 17.482 126.919 17.44 126.863 17.384C126.807 17.328 126.751 17.272 126.695 17.216C126.835 17.076 127.017 17.006 127.241 17.006C127.969 17.006 129.103 17.888 130.643 19.652C132.379 15.564 133.723 11.196 134.675 6.548C134.507 6.52 134.339 6.506 134.171 6.506C134.003 6.506 133.835 6.506 133.667 6.506C131.203 6.506 128.543 6.912 125.687 7.724C121.879 8.844 119.975 10.314 119.975 12.134C119.975 12.61 120.115 13.058 120.395 13.478C120.703 13.898 120.857 14.108 120.857 14.108C120.857 14.164 120.815 14.192 120.731 14.192C120.395 14.192 119.947 13.856 119.387 13.184C118.855 12.484 118.589 11.91 118.589 11.462C118.589 10.146 120.199 8.9 123.419 7.724C127.059 6.408 130.713 5.75 134.381 5.75C135.725 5.75 136.551 5.862 136.859 6.086C136.943 6.114 136.985 6.296 136.985 6.632C136.985 8.144 136.369 10.678 135.137 14.234C134.661 15.606 134.171 16.908 133.667 18.14C133.191 19.344 132.701 20.478 132.197 21.542C132.393 21.766 132.575 22.004 132.743 22.256C132.939 22.48 133.135 22.732 133.331 23.012C135.039 19.736 136.523 17.146 137.783 15.242C137.559 14.57 137.447 13.954 137.447 13.394C137.447 12.022 137.797 11.336 138.497 11.336C138.973 11.336 139.295 11.882 139.463 12.974C143.411 8.018 147.695 5.54 152.315 5.54C154.527 5.54 156.347 6.324 157.775 7.892C159.203 9.432 159.917 11.336 159.917 13.604C159.917 14.22 159.847 14.528 159.707 14.528C159.623 14.528 159.581 14.276 159.581 13.772C159.581 11.728 158.783 10.076 157.187 8.816C155.703 7.668 153.911 7.094 151.811 7.094C147.975 7.094 144.279 9.04 140.723 12.932C141.255 12.932 141.521 13.128 141.521 13.52C141.521 14.052 141.143 14.556 140.387 15.032C139.659 15.508 138.987 15.788 138.371 15.872C136.971 17.804 135.389 20.31 133.625 23.39L139.127 30.866C140.387 32.574 141.535 33.96 142.571 35.024C143.607 36.116 144.489 36.914 145.217 37.418C146.701 38.426 147.947 38.93 148.955 38.93C150.551 38.93 151.349 37.866 151.349 35.738C151.349 33.834 150.747 32.056 149.543 30.404C149.459 30.264 149.417 30.18 149.417 30.152C149.417 30.068 149.459 30.026 149.543 30.026C149.683 30.026 149.837 30.124 150.005 30.32C151.377 31.888 152.063 33.638 152.063 35.57C152.063 36.942 151.657 38.076 150.845 38.972C150.033 39.868 148.955 40.316 147.611 40.316ZM144.926 31.874C143.834 31.874 143.288 31.174 143.288 29.774C143.288 28.066 143.932 26.316 145.22 24.524C144.772 23.432 144.548 22.27 144.548 21.038C144.548 19.834 144.786 18.784 145.262 17.888C146.158 16.124 147.306 15.242 148.706 15.242C150.442 15.242 151.45 16.726 151.73 19.694C152.43 19.722 152.948 19.946 153.284 20.366C153.648 20.758 153.83 21.318 153.83 22.046C153.83 22.606 153.76 23.012 153.62 23.264C153.508 23.488 153.396 23.6 153.284 23.6C153.172 23.6 153.116 23.544 153.116 23.432C153.116 23.292 153.13 23.124 153.158 22.928C153.214 22.732 153.242 22.494 153.242 22.214C153.242 21.822 153.102 21.528 152.822 21.332C152.542 21.108 152.192 20.996 151.772 20.996C151.436 24.412 150.61 27.03 149.294 28.85H150.596C150.232 29.074 149.91 29.186 149.63 29.186C149.574 29.186 149.49 29.172 149.378 29.144C149.294 29.116 149.224 29.102 149.168 29.102C149.224 29.13 148.734 29.592 147.698 30.488C146.606 31.412 145.682 31.874 144.926 31.874ZM145.682 24.062C147.39 21.766 149.182 20.338 151.058 19.778C150.498 17.37 149.728 16.166 148.748 16.166C147.852 16.166 147.026 17.048 146.27 18.812C145.794 19.988 145.556 21.234 145.556 22.55C145.556 23.082 145.598 23.586 145.682 24.062ZM147.95 28.64C148.622 28.024 149.308 26.82 150.008 25.028C150.736 23.18 151.1 21.822 151.1 20.954C150.484 21.038 149.518 21.612 148.202 22.676C146.914 23.712 146.116 24.538 145.808 25.154C146.396 27.282 147.11 28.444 147.95 28.64ZM145.052 30.614C145.836 30.614 146.746 30.026 147.782 28.85C146.858 28.738 146.102 27.632 145.514 25.532C144.59 27.072 144.128 28.276 144.128 29.144C144.128 30.124 144.436 30.614 145.052 30.614ZM158.38 32.378C156.392 32.378 155.398 31.09 155.398 28.514C155.398 28.122 155.412 27.702 155.44 27.254C155.496 26.778 155.58 26.274 155.692 25.742C155.58 25.658 155.468 25.546 155.356 25.406C155.244 25.238 155.132 25.042 155.02 24.818C155.132 24.846 155.244 24.902 155.356 24.986C155.496 25.042 155.664 25.098 155.86 25.154C156.168 23.754 157.008 22.368 158.38 20.996C159.864 19.484 161.264 18.728 162.58 18.728C162.888 18.728 163.042 18.77 163.042 18.854C163.042 18.91 162.846 19.05 162.454 19.274C161.418 19.834 160.438 20.702 159.514 21.878C158.59 23.082 157.918 24.258 157.498 25.406L157.582 25.49C158.926 25.49 160.326 24.846 161.782 23.558C163.238 22.27 163.966 20.954 163.966 19.61C163.966 19.19 163.854 18.812 163.63 18.476C163.406 18.14 163.098 17.972 162.706 17.972C162.146 17.972 161.516 18.196 160.816 18.644C160.116 19.064 159.724 19.274 159.64 19.274C159.584 19.274 159.556 19.26 159.556 19.232C159.556 18.896 160.046 18.532 161.026 18.14C161.866 17.804 162.524 17.636 163 17.636C163.644 17.636 164.176 17.818 164.596 18.182C165.044 18.546 165.268 19.05 165.268 19.694C165.268 21.178 164.302 22.62 162.37 24.02C160.634 25.252 158.954 25.938 157.33 26.078C157.106 26.75 156.994 27.394 156.994 28.01C156.994 30.334 157.834 31.496 159.514 31.496C160.802 31.496 162.146 30.936 163.546 29.816C164.722 28.892 165.702 27.772 166.486 26.456C166.738 26.064 166.948 25.868 167.116 25.868C167.144 25.868 167.158 25.896 167.158 25.952C167.158 26.064 167.046 26.316 166.822 26.708C165.954 28.08 164.736 29.34 163.168 30.488C161.46 31.748 159.864 32.378 158.38 32.378ZM167.616 31.874C167.364 31.874 167.238 31.762 167.238 31.538C167.238 31.51 167.238 31.482 167.238 31.454C167.266 31.426 167.294 31.384 167.322 31.328V31.286C167.322 31.146 167.364 30.978 167.448 30.782C167.924 29.606 168.344 27.996 168.708 25.952C168.792 25.476 168.834 24.762 168.834 23.81C168.834 23.474 168.778 22.956 168.666 22.256C168.582 21.556 168.54 21.038 168.54 20.702C168.54 20.506 168.652 20.366 168.876 20.282L170.724 19.778C171.144 18.826 171.844 18.35 172.824 18.35C173.244 18.35 173.384 18.518 173.244 18.854C173.58 18.714 173.832 18.602 174 18.518C174.168 18.434 174.252 18.392 174.252 18.392C174.308 18.392 174.336 18.434 174.336 18.518C174.336 18.77 173.888 19.092 172.992 19.484C172.516 20.604 171.942 22.018 171.27 23.726C170.626 25.406 169.87 27.394 169.002 29.69C169.87 28.71 170.612 27.828 171.228 27.044C171.872 26.26 172.404 25.588 172.824 25.028C173.132 24.468 173.552 23.782 174.084 22.97C174.616 22.13 175.232 21.178 175.932 20.114C176.324 19.61 176.912 19.358 177.696 19.358C178.48 19.358 178.872 19.666 178.872 20.282C178.872 20.534 178.55 21.472 177.906 23.096C177.122 25.028 176.73 26.05 176.73 26.162C177.458 25.518 178.144 24.804 178.788 24.02C179.46 23.208 180.09 22.34 180.678 21.416C180.79 21.22 180.902 21.122 181.014 21.122C181.098 21.122 181.14 21.192 181.14 21.332C181.14 21.696 180.398 22.9 178.914 24.944C178.466 25.56 178.004 26.176 177.528 26.792C177.052 27.408 176.576 28.024 176.1 28.64C176.016 28.78 175.834 28.85 175.554 28.85C175.358 28.85 175.26 28.752 175.26 28.556C175.26 28.416 175.302 28.164 175.386 27.8C175.47 27.436 175.582 26.946 175.722 26.33L176.394 23.684C176.506 23.18 176.59 22.704 176.646 22.256C176.702 21.808 176.73 21.388 176.73 20.996C175.75 22.48 174.462 24.146 172.866 25.994L168.708 30.74C168.624 31.496 168.26 31.874 167.616 31.874ZM185.886 31.244C184.346 31.244 183.142 30.222 182.274 28.178C181.574 26.61 181.224 24.944 181.224 23.18C181.224 22.144 181.336 21.374 181.56 20.87C181.728 20.562 182.162 20.408 182.862 20.408C183.142 20.408 183.31 20.478 183.366 20.618C183.31 20.618 183.24 20.912 183.156 21.5C183.072 22.032 183.03 22.62 183.03 23.264C183.03 24.692 183.268 26.148 183.744 27.632C184.416 29.564 185.354 30.53 186.558 30.53C186.754 30.53 187.006 30.474 187.314 30.362C187.65 30.222 187.888 30.152 188.028 30.152C188.168 30.152 188.238 30.194 188.238 30.278C188.238 30.502 187.916 30.726 187.272 30.95C186.684 31.146 186.222 31.244 185.886 31.244ZM169.506 23.096C169.646 22.62 169.8 22.158 169.968 21.71C170.136 21.262 170.29 20.856 170.43 20.492L169.296 20.87C169.352 21.234 169.394 21.598 169.422 21.962C169.478 22.326 169.506 22.704 169.506 23.096ZM195.802 32.168C195.046 32.168 194.458 31.776 194.038 30.992C193.702 30.348 193.534 29.606 193.534 28.766C193.534 28.346 193.562 27.884 193.618 27.38C193.702 26.848 193.814 26.274 193.954 25.658C192.19 29.578 190.37 31.538 188.494 31.538C187.346 31.538 186.772 30.796 186.772 29.312C186.772 26.932 187.92 24.468 190.216 21.92C192.54 19.316 194.85 18.014 197.146 18.014C198.238 18.014 198.784 18.49 198.784 19.442C198.784 20.618 198 21.794 196.432 22.97C195.62 24.986 195.214 27.058 195.214 29.186C195.214 30.782 195.564 31.58 196.264 31.58C197.244 31.58 198.924 29.816 201.304 26.288C201.472 26.064 201.598 25.952 201.682 25.952C201.766 25.952 201.808 26.008 201.808 26.12C201.808 26.26 201.752 26.4 201.64 26.54C199.12 30.292 197.174 32.168 195.802 32.168ZM188.662 30.236C190.426 30.236 192.134 28.276 193.786 24.356C193.562 24.412 193.352 24.468 193.156 24.524C192.988 24.552 192.834 24.566 192.694 24.566C192.582 24.566 192.526 24.524 192.526 24.44C192.526 24.3 192.722 24.16 193.114 24.02L194.416 23.264C194.472 22.788 194.766 22.172 195.298 21.416C195.83 20.632 196.334 20.24 196.81 20.24C196.978 20.24 197.062 20.366 197.062 20.618C197.062 20.814 196.992 21.122 196.852 21.542C197.3 20.926 197.524 20.324 197.524 19.736C197.524 19.092 197.23 18.77 196.642 18.77C195.242 18.77 193.408 20.156 191.14 22.928C188.872 25.644 187.738 27.758 187.738 29.27C187.738 29.914 188.046 30.236 188.662 30.236ZM201.183 32.462C200.931 32.462 200.805 32.28 200.805 31.916V31.832C200.917 31.44 201.029 30.95 201.141 30.362C201.281 29.774 201.435 29.088 201.603 28.304C201.771 27.52 201.981 26.54 202.233 25.364C202.485 24.16 202.793 22.774 203.157 21.206L202.653 19.988C202.513 19.624 202.401 19.358 202.317 19.19C202.261 19.022 202.233 18.938 202.233 18.938C202.233 18.742 202.471 18.56 202.947 18.392C204.347 17.86 205.243 17.594 205.635 17.594C206.055 17.594 206.265 17.72 206.265 17.972C206.237 17.888 205.523 19.68 204.123 23.348V23.726C204.123 24.51 203.997 24.902 203.745 24.902C203.717 24.902 203.675 24.86 203.619 24.776C203.395 25.476 203.171 26.148 202.947 26.792C202.751 27.408 202.569 28.024 202.401 28.64C203.017 27.632 203.647 26.666 204.291 25.742C204.963 24.818 205.649 23.95 206.349 23.138C208.449 20.702 210.185 19.484 211.557 19.484C212.201 19.484 212.523 19.736 212.523 20.24C212.523 20.408 212.481 20.618 212.397 20.87C212.173 21.822 211.865 23.026 211.473 24.482C211.081 25.91 210.619 27.576 210.087 29.48C211.711 28.276 212.971 26.988 213.867 25.616C214.007 25.448 214.105 25.364 214.161 25.364C214.245 25.364 214.287 25.42 214.287 25.532C214.287 25.588 214.245 25.686 214.161 25.826C212.929 28.01 211.431 29.746 209.667 31.034C209.555 31.202 209.373 31.286 209.121 31.286C208.925 31.286 208.827 31.174 208.827 30.95C208.827 30.894 208.869 30.642 208.953 30.194C209.037 29.718 209.149 29.06 209.289 28.22C209.429 27.604 209.555 27.002 209.667 26.414C209.779 25.826 209.891 25.224 210.003 24.608C210.199 23.236 210.325 22.032 210.381 20.996C209.765 21.276 209.093 21.738 208.365 22.382C207.665 22.998 206.881 23.782 206.013 24.734C205.229 25.602 204.543 26.428 203.955 27.212C203.395 27.968 202.933 28.682 202.569 29.354C202.177 30.11 201.883 30.922 201.687 31.79C201.575 32.238 201.407 32.462 201.183 32.462ZM203.409 20.072L203.787 18.686C203.647 18.798 203.381 18.938 202.989 19.106L203.409 20.072Z" fill="#4B5768"/>
</svg>
