<svg width="40" height="40" viewBox="0 0 40 40" fill="none" xmlns="http://www.w3.org/2000/svg">
<path d="M2.5 14.9444C2.5 10.5885 2.5 8.4105 3.34773 6.74674C4.09341 5.28326 5.28326 4.09341 6.74674 3.34773C8.4105 2.5 10.5885 2.5 14.9444 2.5H25.0556C29.4115 2.5 31.5895 2.5 33.2533 3.34773C34.7167 4.09341 35.9066 5.28326 36.6523 6.74674C37.5 8.4105 37.5 10.5885 37.5 14.9444V25.0556C37.5 29.4115 37.5 31.5895 36.6523 33.2533C35.9066 34.7167 34.7167 35.9066 33.2533 36.6523C31.5895 37.5 29.4115 37.5 25.0556 37.5H14.9444C10.5885 37.5 8.4105 37.5 6.74674 36.6523C5.28326 35.9066 4.09341 34.7167 3.34773 33.2533C2.5 31.5895 2.5 29.4115 2.5 25.0556V14.9444Z" fill="white"/>
<path d="M20.0034 15.5636L15.6773 7.92896C15.8209 7.78271 15.9862 7.68679 16.1514 7.62231C14.8757 8.04218 14.2903 9.47476 14.2903 9.47476L6.38717 23.4184C6.27596 23.8556 6.24507 24.2503 6.25897 24.5978H14.8849L20.0034 15.5636Z" fill="#34A853"/>
<path d="M20.002 15.5636L25.1204 24.5978H33.7463C33.7602 24.2503 33.7293 23.8556 33.6181 23.4184L25.715 9.47476C25.715 9.47476 25.1281 8.04218 23.8539 7.62231C24.0176 7.68679 24.1844 7.78271 24.3281 7.92896L20.002 15.5636Z" fill="#FBBC05"/>
<path d="M20.0019 15.564L24.328 7.92939C24.1844 7.78314 24.0176 7.68722 23.8538 7.62274C23.6654 7.56141 23.4631 7.52053 23.2438 7.50952H23.0152H16.9886H16.76C16.5422 7.51896 16.3384 7.55984 16.1499 7.62274C15.9862 7.68722 15.8194 7.78314 15.6758 7.92939L20.0019 15.564Z" fill="#188038"/>
<path d="M14.8853 24.5979L10.6086 32.1461C10.6086 32.1461 10.4665 32.0769 10.2734 31.9338C10.8804 32.4008 11.4704 32.4999 11.4704 32.4999H28.2667C29.1934 32.4999 29.3865 32.1461 29.3865 32.1461C29.3896 32.1445 29.3911 32.1429 29.3942 32.1413L25.1206 24.5979H14.8853Z" fill="#4285F4"/>
<path d="M14.8857 24.5979H6.25977C6.30301 25.6232 6.74782 26.2223 6.74782 26.2223L7.07217 26.7853C7.09533 26.8183 7.10923 26.8372 7.10923 26.8372L7.81506 28.0763L9.3997 30.8346C9.44604 30.9462 9.5001 31.0484 9.55725 31.1459C9.57887 31.179 9.59894 31.2151 9.62211 31.2466C9.62829 31.256 9.63447 31.2654 9.64064 31.2749C9.83679 31.5516 10.0561 31.7655 10.2754 31.9338C10.4685 32.0784 10.6106 32.1461 10.6106 32.1461L14.8857 24.5979Z" fill="#1967D2"/>
<path d="M25.1211 24.5979H33.747C33.7038 25.6232 33.259 26.2223 33.259 26.2223L32.9346 26.7853C32.9115 26.8183 32.8976 26.8372 32.8976 26.8372L32.1917 28.0763L30.6071 30.8346C30.5608 30.9462 30.5067 31.0484 30.4496 31.1459C30.4279 31.179 30.4079 31.2151 30.3847 31.2466C30.3785 31.256 30.3723 31.2654 30.3662 31.2749C30.17 31.5516 29.9507 31.7655 29.7314 31.9338C29.5383 32.0784 29.3962 32.1461 29.3962 32.1461L25.1211 24.5979Z" fill="#EA4335"/>
</svg>
