<svg width="41" height="41" viewBox="0 0 41 41" fill="none" xmlns="http://www.w3.org/2000/svg">
<path fill-rule="evenodd" clip-rule="evenodd" d="M20.666 20.3333C20.666 17.2266 23.1844 14.7083 26.291 14.7083C29.3976 14.7083 31.916 17.2266 31.916 20.3333C31.916 23.4399 29.3976 25.9583 26.291 25.9583C23.1844 25.9583 20.666 23.4399 20.666 20.3333Z" fill="#1ABCFE"/>
<path fill-rule="evenodd" clip-rule="evenodd" d="M9.41602 31.5833C9.41602 28.4767 11.9344 25.9583 15.041 25.9583H20.666V31.5833C20.666 34.6899 18.1476 37.2083 15.041 37.2083C11.9344 37.2083 9.41602 34.6899 9.41602 31.5833Z" fill="#0ACF83"/>
<path fill-rule="evenodd" clip-rule="evenodd" d="M20.666 3.45825V14.7083H26.291C29.3976 14.7083 31.916 12.1899 31.916 9.08325C31.916 5.97665 29.3976 3.45825 26.291 3.45825H20.666Z" fill="#FF7262"/>
<path fill-rule="evenodd" clip-rule="evenodd" d="M9.41602 9.08325C9.41602 12.1899 11.9344 14.7083 15.041 14.7083H20.666V3.45825H15.041C11.9344 3.45825 9.41602 5.97665 9.41602 9.08325Z" fill="#F24E1E"/>
<path fill-rule="evenodd" clip-rule="evenodd" d="M9.41602 20.3333C9.41602 23.4399 11.9344 25.9583 15.041 25.9583H20.666V14.7083H15.041C11.9344 14.7083 9.41602 17.2266 9.41602 20.3333Z" fill="#A259FF"/>
</svg>
