<svg width="40" height="41" viewBox="0 0 40 41" fill="none" xmlns="http://www.w3.org/2000/svg">
<path d="M20 3.1665C10.3312 3.1665 2.5 10.9978 2.5 20.6665C2.5 28.4103 7.50937 34.9509 14.4656 37.2696C15.3406 37.4228 15.6687 36.8978 15.6687 36.4384C15.6687 36.0228 15.6469 34.6446 15.6469 33.179C11.25 33.9884 10.1125 32.1071 9.7625 31.1228C9.56562 30.6196 8.7125 29.0665 7.96875 28.6509C7.35625 28.3228 6.48125 27.5134 7.94688 27.4915C9.325 27.4696 10.3094 28.7603 10.6375 29.2853C12.2125 31.9321 14.7281 31.1884 15.7344 30.729C15.8875 29.5915 16.3469 28.8259 16.85 28.3884C12.9563 27.9509 8.8875 26.4415 8.8875 19.7478C8.8875 17.8446 9.56563 16.2696 10.6812 15.0446C10.5063 14.6071 9.89375 12.8134 10.8562 10.4071C10.8562 10.4071 12.3219 9.94775 15.6687 12.2009C17.0688 11.8071 18.5563 11.6103 20.0438 11.6103C21.5313 11.6103 23.0188 11.8071 24.4188 12.2009C27.7656 9.92588 29.2313 10.4071 29.2313 10.4071C30.1938 12.8134 29.5813 14.6071 29.4062 15.0446C30.5219 16.2696 31.2 17.8228 31.2 19.7478C31.2 26.4634 27.1094 27.9509 23.2156 28.3884C23.85 28.9353 24.3969 29.9853 24.3969 31.6259C24.3969 33.9665 24.375 35.8478 24.375 36.4384C24.375 36.8978 24.7031 37.4446 25.5781 37.2696C29.0522 36.0968 32.071 33.8641 34.2096 30.8857C36.3483 27.9073 37.4991 24.3332 37.5 20.6665C37.5 10.9978 29.6688 3.1665 20 3.1665Z" fill="black"/>
</svg>
