<svg width="41" height="40" viewBox="0 0 41 40" fill="none" xmlns="http://www.w3.org/2000/svg">
<circle cx="20.334" cy="20" r="17.5" fill="#FF3366"/>
<path d="M14.5332 13.5742C15.7413 13.5742 16.7207 12.5948 16.7207 11.3867C16.7207 10.1786 15.7413 9.19922 14.5332 9.19922C13.3251 9.19922 12.3457 10.1786 12.3457 11.3867C12.3457 12.5948 13.3251 13.5742 14.5332 13.5742Z" fill="white"/>
<path d="M9.96289 15.4492L9.20117 18.2422H11.7012C11.1999 20.2799 10.1504 24.5664 9.96289 25.4102C9.72852 26.4648 9.68939 29.4727 12.8535 29.4727C15.062 29.4727 16.4706 28.046 17.2563 26.881L16.6621 29.2578H20.2168L22.0723 21.7476C22.3359 20.498 22.9566 18.0859 25.1973 18.0859C27.8622 18.0859 26.8845 21.2416 26.4054 22.7881C26.3859 22.8511 26.3672 22.9114 26.3496 22.9688C25.9902 24.1406 25.6074 25.5078 25.6074 26.4453C25.6074 27.5 26.0957 29.4727 28.8301 29.4727C31.5645 29.4727 32.7298 26.7643 32.9707 25.4102L31.584 24.8438C31.4863 25.5664 30.6074 27.1289 29.7871 27.1289C28.6641 27.1289 29.2282 25.2356 29.8302 23.2151C30.0973 22.3189 30.3717 21.3976 30.5098 20.6055C30.8587 18.6026 30.5098 15.1953 27.0332 15.1953C24.8739 15.1953 23.1784 17.1194 22.3718 18.4551L23.0488 15.4492H17.6387L16.8965 18.2422H19.416C19.416 18.2422 17.9209 24.3354 17.8242 24.5264C16.8086 26.5332 15.2725 27.2068 14.123 27.1289C13.2012 27.0664 13.3092 25.957 13.4785 25.4102L15.9785 15.4492H9.96289Z" fill="white"/>
</svg>
