<svg width="41" height="40" viewBox="0 0 41 40" fill="none" xmlns="http://www.w3.org/2000/svg">
<path fill-rule="evenodd" clip-rule="evenodd" d="M7.81101 36.5222L3.51181 31.1664C2.47743 29.8778 1.91602 28.2933 1.91602 26.6623V7.26873C1.91602 4.8258 3.8705 2.79871 6.39191 2.62656L26.3312 1.26523C27.7798 1.16633 29.2195 1.55136 30.4095 2.35588L37.4151 7.09239C38.6691 7.94024 39.416 9.32623 39.416 10.8053V32.854C39.416 35.2447 37.4942 37.2241 35.0255 37.3761L12.8952 38.7383C10.9252 38.8596 9.021 38.0296 7.81101 36.5222Z" fill="white"/>
<path d="M14.7271 16.9733V16.7194C14.7271 16.0757 15.2426 15.542 15.9069 15.4976L20.7461 15.1745L27.4383 25.0293V16.3801L25.7158 16.1504V16.0298C25.7158 15.3787 26.243 14.8414 26.9158 14.8069L31.319 14.5813V15.215C31.319 15.5124 31.0978 15.7669 30.7946 15.8181L29.735 15.9974V30.0045L28.4052 30.4618C27.2943 30.8439 26.0575 30.4349 25.4215 29.4752L18.9246 19.6714V29.0286L20.9243 29.4113L20.8964 29.5968C20.8092 30.1778 20.3076 30.6172 19.7007 30.6442L14.7271 30.8656C14.6614 30.2408 15.1296 29.6818 15.7756 29.614L16.4298 29.5452V17.0689L14.7271 16.9733Z" fill="black"/>
<path fill-rule="evenodd" clip-rule="evenodd" d="M26.5106 3.70836L6.57133 5.06969C5.37698 5.15124 4.45117 6.11144 4.45117 7.26861V26.6622C4.45117 27.7495 4.82545 28.8059 5.51504 29.6649L9.81424 35.0208C10.5093 35.8867 11.6032 36.3635 12.7349 36.2938L34.8653 34.9316C35.9995 34.8617 36.8825 33.9523 36.8825 32.8538V10.8052C36.8825 10.1256 36.5393 9.48881 35.9632 9.09926L28.9576 4.36275C28.2436 3.88004 27.3797 3.64902 26.5106 3.70836ZM7.56008 7.57112C7.28276 7.36581 7.41474 6.93806 7.76312 6.91307L26.6447 5.55876C27.2463 5.51561 27.8441 5.68128 28.3306 6.02598L32.1191 8.71004C32.2629 8.81194 32.1955 9.03192 32.0174 9.0416L12.0218 10.1291C11.4167 10.162 10.8194 9.98422 10.3383 9.628L7.56008 7.57112ZM11.084 13.5383C11.084 12.8887 11.6088 12.3521 12.2798 12.3155L33.4208 11.1642C34.0748 11.1286 34.6254 11.6315 34.6254 12.2646V31.3565C34.6254 32.0049 34.1025 32.5409 33.4327 32.579L12.4256 33.7743C11.6977 33.8157 11.084 33.2564 11.084 32.5517V13.5383Z" fill="black"/>
</svg>
