<svg width="41" height="41" viewBox="0 0 41 41" fill="none" xmlns="http://www.w3.org/2000/svg">
<path fill-rule="evenodd" clip-rule="evenodd" d="M10.4703 6.65422L20.3339 5.6665L30.1976 6.65422L37.8339 16.364L20.3339 35.6664L2.83398 16.364L10.4703 6.65422Z" fill="#FDB300"/>
<path d="M9.92227 16.364L20.3339 35.6665L2.83398 16.364H9.92227ZM30.7457 16.364L20.3341 35.6665L37.834 16.364" fill="#EA6C00"/>
<path fill-rule="evenodd" clip-rule="evenodd" d="M9.92188 16.364H30.7451L20.3335 35.6665" fill="#FDAD00"/>
<path d="M20.3335 5.6665L10.4699 6.65406L9.92188 16.3639L20.3335 5.6665ZM20.3336 5.6665L30.1972 6.65406L30.7452 16.3639" fill="#FDD231"/>
<path d="M37.834 16.3639L30.1977 6.65405L30.7457 16.3639H37.834ZM2.83398 16.3639L10.4702 6.65405L9.92227 16.3639" fill="#FDAD00"/>
<path fill-rule="evenodd" clip-rule="evenodd" d="M20.3335 5.6665L9.92188 16.3639H30.7451" fill="#FEEEB7"/>
</svg>
