<svg width="41" height="41" viewBox="0 0 41 41" fill="none" xmlns="http://www.w3.org/2000/svg">
<path d="M33.7913 19.4162C35.517 19.4162 36.916 18.0172 36.916 16.2915C36.916 14.5657 35.5169 13.1667 33.7912 13.1667C32.0653 13.1667 30.666 14.5659 30.666 16.2917V19.4162H33.7913ZM25.041 19.4162C26.7669 19.4162 28.166 18.0171 28.166 16.2912V7.54175C28.166 5.81586 26.7669 4.41675 25.041 4.41675C23.3151 4.41675 21.916 5.81586 21.916 7.54175V16.2912C21.916 18.0171 23.3151 19.4162 25.041 19.4162Z" fill="#2EB67D"/>
<path d="M7.54075 21.9168C5.81501 21.9168 4.41602 23.3158 4.41602 25.0415C4.41602 26.7673 5.81514 28.1663 7.54088 28.1663C9.26677 28.1663 10.666 26.7671 10.666 25.0413V21.9168H7.54075ZM16.291 21.9168C14.5651 21.9168 13.166 23.3159 13.166 25.0418V33.7913C13.166 35.5172 14.5651 36.9163 16.291 36.9163C18.0169 36.9163 19.416 35.5171 19.416 33.7913V25.0418C19.416 23.3159 18.0169 21.9168 16.291 21.9168Z" fill="#E01E5A"/>
<path d="M21.9166 33.7918C21.9166 35.5175 23.3155 36.9165 25.0413 36.9165C26.767 36.9165 28.166 35.5174 28.166 33.7916C28.166 32.0657 26.7669 30.6665 25.041 30.6665L21.9166 30.6665L21.9166 33.7918ZM21.9166 25.0415C21.9166 26.7674 23.3157 28.1665 25.0416 28.1665L33.791 28.1665C35.5169 28.1665 36.916 26.7674 36.916 25.0415C36.916 23.3156 35.5169 21.9165 33.791 21.9165L25.0416 21.9165C23.3157 21.9165 21.9166 23.3156 21.9166 25.0415Z" fill="#ECB22E"/>
<path d="M19.4155 7.54124C19.4155 5.8155 18.0165 4.41651 16.2907 4.41651C14.565 4.41651 13.166 5.81563 13.166 7.54137C13.166 9.26726 14.5651 10.6665 16.291 10.6665L19.4155 10.6665L19.4155 7.54124ZM19.4155 16.2915C19.4155 14.5656 18.0164 13.1665 16.2905 13.1665L7.54102 13.1665C5.81513 13.1665 4.41602 14.5656 4.41602 16.2915C4.41602 18.0174 5.81513 19.4165 7.54102 19.4165L16.2905 19.4165C18.0164 19.4165 19.4155 18.0174 19.4155 16.2915Z" fill="#36C5F0"/>
</svg>
