<svg width="40" height="41" viewBox="0 0 40 41" fill="none" xmlns="http://www.w3.org/2000/svg">
<path fill-rule="evenodd" clip-rule="evenodd" d="M20 39.0833C29.665 39.0833 37.5 31.2482 37.5 21.5833C37.5 11.9183 29.665 4.08325 20 4.08325C10.335 4.08325 2.5 11.9183 2.5 21.5833C2.5 24.7219 3.32625 27.6675 4.77309 30.2145L2.5 39.0833L11.6436 36.963C14.1267 38.315 16.9736 39.0833 20 39.0833ZM20 36.3909C28.1781 36.3909 34.8077 29.7613 34.8077 21.5833C34.8077 13.4052 28.1781 6.77556 20 6.77556C11.8219 6.77556 5.19231 13.4052 5.19231 21.5833C5.19231 24.7408 6.18063 27.6676 7.8648 30.071L6.53846 35.0448L11.5999 33.7794C13.9867 35.4265 16.8807 36.3909 20 36.3909Z" fill="#BFC8D0"/>
<path d="M35 20.3333C35 28.6175 28.2843 35.3333 20 35.3333C16.8402 35.3333 13.9086 34.3562 11.4908 32.6878L6.36364 33.9696L7.7072 28.9313C6.00116 26.4966 5 23.5318 5 20.3333C5 12.049 11.7157 5.33325 20 5.33325C28.2843 5.33325 35 12.049 35 20.3333Z" fill="url(#paint0_linear_10113_52818)"/>
<path fill-rule="evenodd" clip-rule="evenodd" d="M20 37.8333C29.665 37.8333 37.5 29.9982 37.5 20.3333C37.5 10.6683 29.665 2.83325 20 2.83325C10.335 2.83325 2.5 10.6683 2.5 20.3333C2.5 23.4719 3.32625 26.4175 4.77309 28.9645L2.5 37.8333L11.6436 35.713C14.1267 37.065 16.9736 37.8333 20 37.8333ZM20 35.1409C28.1781 35.1409 34.8077 28.5113 34.8077 20.3333C34.8077 12.1552 28.1781 5.52556 20 5.52556C11.8219 5.52556 5.19231 12.1552 5.19231 20.3333C5.19231 23.4908 6.18063 26.4176 7.8648 28.821L6.53846 33.7948L11.5999 32.5294C13.9867 34.1765 16.8807 35.1409 20 35.1409Z" fill="white"/>
<path d="M15.625 12.2082C15.2089 11.3725 14.5707 11.4465 13.9258 11.4465C12.7735 11.4465 10.9766 12.8268 10.9766 15.3958C10.9766 17.5012 11.9043 19.8059 15.0305 23.2535C18.0476 26.5807 22.0117 28.3019 25.3027 28.2433C28.5938 28.1847 29.2709 25.3527 29.2709 24.3963C29.2709 23.9724 29.0078 23.7609 28.8266 23.7034C27.7051 23.1652 25.6367 22.1623 25.166 21.9739C24.6954 21.7855 24.4497 22.0403 24.2969 22.179C23.8701 22.5857 23.0241 23.7843 22.7344 24.054C22.4447 24.3236 22.0129 24.1871 21.8331 24.0852C21.1718 23.8198 19.3787 23.0222 17.9493 21.6367C16.1817 19.9231 16.0779 19.3335 15.7449 18.8088C15.4784 18.3889 15.674 18.1313 15.7715 18.0188C16.1524 17.5793 16.6783 16.9009 16.9141 16.5637C17.1499 16.2265 16.9627 15.7146 16.8504 15.3958C16.3672 14.0246 15.9579 12.8768 15.625 12.2082Z" fill="white"/>
<defs>
<linearGradient id="paint0_linear_10113_52818" x1="33.125" y1="9.08325" x2="5" y2="35.3332" gradientUnits="userSpaceOnUse">
<stop stop-color="#5BD066"/>
<stop offset="1" stop-color="#27B43E"/>
</linearGradient>
</defs>
</svg>
