<svg width="329" height="270" viewBox="0 0 329 270" fill="none" xmlns="http://www.w3.org/2000/svg">
<ellipse cx="170.028" cy="129.62" rx="110" ry="110.62" fill="#4D7CFE"/>
<mask id="mask0_10333_144194" style="mask-type:luminance" maskUnits="userSpaceOnUse" x="60" y="19" width="221" height="222">
<ellipse cx="170.028" cy="129.62" rx="110" ry="110.62" fill="white"/>
</mask>
<g mask="url(#mask0_10333_144194)">
</g>
<path d="M247.748 155.105C248.805 168.864 248.553 181.718 246.028 193L283.205 192.974L300.028 181.421C295.432 166.194 292.307 163.597 295.761 153L247.748 155.105H247.748Z" fill="#FFB6B6"/>
<path d="M248.416 154.393C249.47 163.494 245.546 168.322 243.028 175.785L243.028 175.785C250.366 171.079 262.933 171.32 271.444 173.182L298.028 179C293.445 168.928 292.844 160.01 296.288 153L248.416 154.393V154.393Z" fill="#3F3D56"/>
<path d="M299.008 177L311.111 207.08C315.034 216.83 316.645 227.366 315.817 237.851L313.278 270H276.916C276.916 270 275.068 262.128 276.454 262.566C277.839 263.004 274.623 260.88 276.231 258.983C277.839 257.086 275.671 249.982 275.671 249.982C275.671 249.982 273.353 258.118 269.985 270H230.028C233.397 248.075 236.991 221.72 235.103 219.913C231.839 216.789 235.216 217.755 238.603 214.718C241.989 211.686 240.998 209.301 239.214 207.53C237.435 205.763 239.943 205.071 241.523 203.487C243.098 201.903 247.032 182.745 247.032 182.745C247.059 182.764 248.385 182.865 248.412 182.879C249.318 183.789 254.88 185.61 267.879 185.61C279.197 185.61 296.441 178.311 298.583 177.223C298.863 177.077 299.008 177 299.008 177Z" fill="#2F2E41"/>
<path d="M38.4661 0.482422C36.4656 0.482422 34.8379 2.11329 34.8379 4.11772C34.8379 6.12215 36.4656 7.75302 38.4661 7.75302H120.054C122.055 7.75302 123.683 6.12215 123.683 4.11772C123.683 2.11329 122.055 0.482422 120.054 0.482422L38.4661 0.482422Z" fill="#E8ECEF"/>
<path d="M38.4661 72.5742C36.4656 72.5742 34.8379 74.2051 34.8379 76.2095C34.8379 78.214 36.4656 79.8448 38.4661 79.8448H120.054C122.055 79.8448 123.683 78.214 123.683 76.2095C123.683 74.2051 122.055 72.5742 120.054 72.5742H38.4661Z" fill="#E8ECEF"/>
<path d="M53.8841 24.5137C51.8836 24.5137 50.2559 26.1445 50.2559 28.149C50.2559 30.1534 51.8836 31.7843 53.8841 31.7843H190.4C192.401 31.7843 194.028 30.1534 194.028 28.149C194.028 26.1445 192.401 24.5137 190.4 24.5137H53.8841Z" fill="#E8ECEF"/>
<path d="M53.8841 48.5449C51.8836 48.5449 50.2559 50.1758 50.2559 52.1802C50.2559 54.1847 51.8836 55.8155 53.8841 55.8155H190.4C192.401 55.8155 194.028 54.1847 194.028 52.1802C194.028 50.1758 192.401 48.5449 190.4 48.5449H53.8841Z" fill="#E8ECEF"/>
<ellipse cx="17.2802" cy="4.11748" rx="2.71572" ry="2.721" fill="#E8ECEF"/>
<ellipse cx="17.2802" cy="76.2093" rx="2.71572" ry="2.721" fill="#E8ECEF"/>
<ellipse cx="34.0272" cy="28.1487" rx="2.71572" ry="2.721" fill="#E8ECEF"/>
<ellipse cx="34.0272" cy="52.18" rx="2.71572" ry="2.721" fill="#E8ECEF"/>
<path d="M5.77018 6.87296L4.67283 6.75347C4.78043 6.38824 4.83333 5.99901 4.89132 5.64446C5.16039 3.99878 5.23333 2.33318 5.09017 0.671445C5.03942 0.0822048 4.3863 -0.223127 3.93116 0.190432L1.55916 2.34582C0.910452 2.93528 1.87302 3.8951 2.51932 3.30782C2.94614 2.91998 3.37296 2.53211 3.7998 2.14427C3.80919 2.89878 3.7806 3.65348 3.70054 4.40492C3.63725 4.99876 3.54661 5.59475 3.41329 6.17707C3.38218 6.31297 3.35263 6.47205 3.28464 6.60231C3.09253 6.58138 2.90042 6.56048 2.70831 6.53955C2.06427 6.46944 1.89337 7.30127 2.22823 7.70082C2.58142 8.12226 3.17057 8.18991 3.66012 8.00369L5.77018 8.23345C6.13528 8.2732 6.44911 7.89233 6.44911 7.5532C6.44911 7.15238 6.13633 6.91281 5.77018 6.87295V6.87296Z" fill="#E8ECEF"/>
<path d="M6.12624 31.1892C5.50044 31.1388 4.87469 31.0884 4.24888 31.0381C5.42297 29.9533 6.27934 28.4829 6.4309 26.9065C6.54126 25.7587 6.05275 24.4697 4.95847 23.9611C3.85712 23.4492 2.52269 23.8657 2.09833 25.0561C1.65184 26.3087 2.87069 27.6517 4.15893 27.2436C4.98917 26.9806 4.63451 25.6667 3.79797 25.9317C3.59652 25.9955 3.36665 25.869 3.35356 25.6313C3.33966 25.3787 3.59619 25.1532 3.82295 25.1014C4.75272 24.889 5.13036 26.0823 5.08373 26.776C4.96358 28.5637 3.51343 30.1799 1.99968 30.9775C1.35934 31.3149 1.71825 32.1949 2.34235 32.2451C3.60365 32.3466 4.86493 32.4482 6.12624 32.5497C6.4922 32.5791 6.80517 32.2159 6.80517 31.8694C6.80517 31.4769 6.49325 31.2187 6.12624 31.1892V31.1892Z" fill="#E8ECEF"/>
<path d="M6.39099 51.6939C6.92676 51.109 7.06903 50.2098 6.80952 49.4666C6.51605 48.6261 5.7585 48.0056 4.89933 47.808C3.97108 47.5945 3.017 47.8389 2.22 48.3348C1.47913 48.7958 2.16013 49.9732 2.90533 49.5096C3.658 49.0413 4.86359 48.8096 5.42814 49.6992C5.62266 50.0056 5.66053 50.4854 5.40414 50.7713C5.33562 50.8477 5.25377 50.8978 5.16774 50.9351C4.86695 50.8392 4.54705 50.7861 4.21175 50.7959C3.53169 50.8157 3.29712 51.7012 3.86911 52.0635C4.22267 52.2874 4.62968 52.3737 5.02989 52.3447C5.7081 52.6996 6.09028 53.5045 5.77081 54.3052C5.35253 55.3537 3.9965 55.582 3.20565 54.8078C2.58018 54.1955 1.61913 55.1567 2.24549 55.7699C2.96846 56.4776 3.99685 56.7682 4.98569 56.5664C5.94668 56.3703 6.68845 55.6563 7.044 54.7597C7.48701 53.6425 7.14898 52.4717 6.39098 51.6939L6.39099 51.6939Z" fill="#E8ECEF"/>
<path d="M6.69679 75.9148C6.82737 74.6432 6.95794 73.3717 7.08852 72.1002C7.12612 71.7342 6.74958 71.4199 6.40959 71.4199C6.01123 71.4199 5.76837 71.7331 5.73066 72.1002L5.3433 75.8723C4.08221 75.8849 2.82107 75.899 1.55992 75.907C1.55266 75.9071 1.54813 75.9062 1.54106 75.9062L1.54514 75.8977L1.70952 75.6056C1.80082 75.4433 1.89215 75.281 1.98345 75.1187L3.18882 72.9763C3.61848 72.2126 2.44593 71.526 2.01633 72.2896C1.55064 73.1174 1.08493 73.9451 0.619241 74.7728C0.392904 75.1751 0.0538822 75.621 0.029735 76.097C0.00346492 76.615 0.345772 77.0411 0.831017 77.1901C1.22455 77.3108 1.66355 77.2666 2.06865 77.2628L3.48173 77.2499C4.05563 77.2446 4.62953 77.2394 5.20342 77.2341C5.09781 78.2627 4.99217 79.2913 4.88656 80.3198C4.84899 80.6858 5.22553 81 5.56549 81C5.96388 81 6.20674 80.6868 6.24442 80.3198C6.35097 79.2823 6.45749 78.2449 6.56405 77.2074C7.19853 77.079 7.24383 76.1455 6.69679 75.9148Z" fill="#E8ECEF"/>
<path d="M322.54 158.41L310.125 111.747C309.018 107.636 304.87 105.188 300.805 106.246H300.805C296.54 107.357 294.065 111.874 295.383 116.14L309.743 164.211L317.256 193.794C315.189 195.402 314.152 198.163 314.84 200.886C315.759 204.525 319.409 206.718 322.992 205.785C326.576 204.852 328.736 201.145 327.817 197.506C327.481 196.178 326.779 195.045 325.852 194.184L322.54 158.41H322.54Z" fill="#FFB6B6"/>
<path d="M216.838 148.653L255.013 119.036C258.37 116.415 259.021 111.564 256.475 108.138L256.475 108.138C253.803 104.543 248.686 103.943 245.267 106.824L206.548 138.814L182.208 157.253C179.928 155.922 176.985 156.003 174.743 157.697C171.746 159.96 171.138 164.243 173.383 167.264C175.628 170.284 179.877 170.898 182.873 168.635C183.967 167.808 184.738 166.711 185.173 165.506L216.838 148.653Z" fill="#FFB6B6"/>
<path d="M264.038 86L256.401 99.0229L252.762 98.8227C249.005 98.616 245.547 100.003 243.028 102.378C241.768 103.566 243.033 106.663 240.034 106.608C236.462 106.541 232.064 113.627 233.215 117.308V137.229C238.926 137.019 243.765 127.869 243.665 120.477C243.665 120.477 235.394 132.719 246.945 139.57C246.945 139.57 244.884 162.438 246.945 162.299C249.005 162.161 250.025 163.487 247.249 164.635C242.235 166.708 248.702 169.215 249.316 169.827C249.725 170.235 249.93 170.439 249.93 170.439C256.294 157.561 280.356 176.041 300.236 181C302.495 179.298 303.405 175.52 299.315 172.31C295.469 169.292 300.79 162.683 302.221 163.73C303.617 164.751 296.457 155.878 297.512 151.675C298.566 147.472 300.148 149.048 298.566 147.472C296.984 145.895 305.264 137.802 300.404 130.227L304.292 145.734C301.67 146.211 301.468 147.125 302.271 149C302.549 149.648 304.026 149.874 304.057 152.606C304.088 155.338 305.781 151.62 304.935 153.253C304.088 154.885 305.833 153.757 306.36 153.98C312.763 156.057 318.016 154.164 322.715 150.358C323.023 149.502 325.955 146.433 323.881 147.263C321.806 148.094 321.854 146.396 324.102 146.113C326.35 145.831 323.819 144.688 323.675 143.905C323.409 142.455 322.711 140.993 320.444 141.756C319.229 134.148 318.438 123.094 314.487 119.361C314.487 117.423 312.341 105.33 309.553 105.781C306.764 106.232 308.064 104.174 307.161 103.45C303.088 100.183 297.121 98.0617 292.746 98.0617H291.812L281.821 86L264.038 86Z" fill="#6DD230"/>
<path d="M285.514 78.1986C272.642 81.4892 259.29 82.8483 253.834 90C253.834 90 260.411 77.954 253.661 78.0065C242.32 78.0948 254.842 57.6896 259.059 55.2323C266.088 51.1369 282.712 53.9296 282.712 53.9296L291.028 64.0662L285.514 78.1986Z" fill="#2F2E41"/>
<circle cx="273.028" cy="64" r="18" fill="#FFB6B6"/>
<path d="M279.774 59.8542L279.246 63L267.013 60.8495C267.451 59.6763 267.444 58.3213 266.886 57.1935C266.674 58.4192 266.162 59.5858 265.421 60.5696C257.989 61.467 257.837 62.8406 253.325 59.8856C251.82 59.6211 250.81 58.1586 251.069 56.619V56.619C252.687 46.974 255.701 37.6943 265.155 39.1518C270.068 39.9091 274.176 42.6844 276.824 46.5106C279.399 50.2472 280.59 54.9907 279.774 59.8542V59.8542Z" fill="#2F2E41"/>
<path d="M273.337 70.1042C275.024 60.2265 268.428 50.8436 258.604 49.147C257.4 48.9391 256.204 48.858 255.028 48.8908C256.732 46.9451 259.094 45.6132 261.757 45.2346L276.654 45C283.468 46.1767 294.994 46.251 297.889 52.0026C300.561 57.2913 295.665 63.4125 297.868 68.9068C300.281 74.928 298.547 80.1302 296.159 82.5415C293.398 85.3311 288.757 88.7724 284.922 88.3344C285.216 87.0802 285.11 85.741 284.528 84.5837C284.31 85.8109 283.845 86.9956 283.173 88.0403L255.569 96C258.205 95.116 261.659 91.4428 264.826 87.0039C266.701 84.3764 271.136 85.0325 269.922 78.7362C268.709 72.4399 272.972 72.2404 273.337 70.1042L273.337 70.1042Z" fill="#2F2E41"/>
<path d="M222.567 163H107.49C101.721 163 97.0283 158.364 97.0283 152.665V71.3348C97.0283 65.6362 101.721 61 107.49 61H222.567C228.335 61 233.028 65.6362 233.028 71.3348V152.665C233.028 158.364 228.335 163 222.567 163Z" fill="white"/>
<path fill-rule="evenodd" clip-rule="evenodd" d="M107.49 163H222.567C228.335 163 233.028 158.364 233.028 152.665V71.3348C233.028 65.6362 228.335 61 222.567 61H107.49C101.721 61 97.0283 65.6362 97.0283 71.3348V152.665C97.0283 158.364 101.721 163 107.49 163ZM97.938 122.5C97.938 89.0307 125.403 61.8987 159.282 61.8987H222.567C227.842 61.8987 232.119 66.1234 232.119 71.3348V152.665C232.119 157.877 227.842 162.101 222.567 162.101H107.49C102.215 162.101 97.938 157.877 97.938 152.665V122.5Z" fill="#3F3D56"/>
<path d="M135.838 133.793H117.829C116.836 133.793 116.028 132.984 116.028 131.989C116.028 130.995 116.836 130.186 117.829 130.186H135.838C136.831 130.186 137.639 130.995 137.639 131.989C137.639 132.984 136.831 133.793 135.838 133.793Z" fill="#CCCCCC"/>
<path d="M175.008 147H117.829C116.836 147 116.028 146.191 116.028 145.196C116.028 144.202 116.836 143.393 117.829 143.393H175.008C176.001 143.393 176.809 144.202 176.809 145.196C176.809 146.191 176.001 147 175.008 147Z" fill="#CCCCCC"/>
<ellipse cx="183.664" cy="106.412" rx="28.3645" ry="28.4118" fill="#FFAB2B"/>
</svg>
