<svg width="24" height="24" viewBox="0 0 24 24" fill="none" xmlns="http://www.w3.org/2000/svg">
<path d="M7.63839 11.1587C8.04952 9.62452 9.62647 8.04757 11.1606 7.63644L20.7251 5.07325C22.2592 4.66212 23.1696 5.57249 22.7585 7.10663L20.1953 16.6711C19.7842 18.2053 18.2072 19.7822 16.6731 20.1933L7.10858 22.7565C5.57445 23.1677 4.66407 22.2573 5.07521 20.7232L7.63839 11.1587Z" fill="#9E77ED"/>
<path d="M3.80441 7.32467C4.21554 5.79054 5.79249 4.21359 7.32663 3.80245L16.8911 1.23927C18.4253 0.828138 19.3356 1.73851 18.9245 3.27265L16.3613 12.8371C15.9502 14.3713 14.3732 15.9482 12.8391 16.3594L3.2746 18.9225C1.74046 19.3337 0.830086 18.4233 1.24122 16.8892L3.80441 7.32467Z" fill="#6941C6"/>
</svg>
