<svg width="16" height="16" viewBox="0 0 16 16" fill="none" xmlns="http://www.w3.org/2000/svg">
<path d="M10.6673 8.59992V11.3999C10.6673 13.7333 9.73398 14.6666 7.40065 14.6666H4.60065C2.26732 14.6666 1.33398 13.7333 1.33398 11.3999V8.59992C1.33398 6.26658 2.26732 5.33325 4.60065 5.33325H7.40065C9.73398 5.33325 10.6673 6.26658 10.6673 8.59992Z" stroke="#4B5768" stroke-width="1.5" stroke-linecap="round" stroke-linejoin="round"/>
<path d="M14.6673 4.59992V7.39992C14.6673 9.73325 13.734 10.6666 11.4007 10.6666H10.6673V8.59992C10.6673 6.26658 9.73398 5.33325 7.40065 5.33325H5.33398V4.59992C5.33398 2.26659 6.26732 1.33325 8.60065 1.33325H11.4007C13.734 1.33325 14.6673 2.26659 14.6673 4.59992Z" stroke="#4B5768" stroke-width="1.5" stroke-linecap="round" stroke-linejoin="round"/>
</svg>
